# xmcd
#
# Track frame offsets:
# 150
# 14005
# 35996
# 51581
# 74447
# 92259
# 113175
# 136207
# 162676
# 186522
#
# Disc length: 2732 seconds
#
#
# Revision: 0
# Processed by: cddbd v1.5.1PL0 Copyright (c) Steve Scherf et al.
# Submitted via: FreeRIP 2.941 
#
DISCID=990aaa0a
DTITLE=Joe Galea Band - Things have changed
DYEAR=2004
DGENRE=Blues
TTITLE0=Is It Alright
TTITLE1=Money Tree
TTITLE2=Messa The Blues
TTITLE3=Ashamed To Say Your Mine
TTITLE4=I Want All My Money Back
TTITLE5=Who's Makin' Love
TTITLE6=Give Me Some Lovin'
TTITLE7=Things Have Changed
TTITLE8=T. For Texas
TTITLE9=Spider And The Fly
EXTD=Australian blues
EXTT0=
EXTT1=
EXTT2=
EXTT3=
EXTT4=
EXTT5=
EXTT6=
EXTT7=
EXTT8=
EXTT9=
PLAYORDER=
